<svg xmlns="http://www.w3.org/2000/svg" xmlns:xlink="http://www.w3.org/1999/xlink" width="128" height="128" viewBox="0 0 128 128" fill="none"><rect x="0" y="0" width="0" height="0" fill="rgba(249, 249, 249, 1)" /><path id="矩形 1" fill-rule="evenodd" style="fill:#383838" opacity="1" d="M40 128L88 128C110.09 128 128 110.09 128 88L128 40C128 17.91 110.09 0 88 0L40 0C17.91 0 0 17.91 0 40L0 88C0 110.09 17.91 128 40 128Z"></path><path id="矩形 2" fill-rule="evenodd" style="fill:#A6A6A6" opacity="1" d="M40.364 98.6482L78.1942 60.818L71.8302 54.454L34 92.2842L40.364 98.6482Z"></path><path id="矩形 2" fill-rule="evenodd" style="fill:#A6A6A6" opacity="1" d="M34 92L34 102L43 102L43 92L34 92Z"></path><path id="矩形 2" fill-rule="evenodd" style="fill:#A6A6A6" opacity="1" d="M34 20L34 30L43 30L43 20L34 20Z"></path><path id="矩形 2" fill-rule="evenodd" style="fill:#A6A6A6" opacity="1" d="M34 28L94 28L94 19L34 19L34 28Z"></path><path id="矩形 2" fill-rule="evenodd" style="fill:#A6A6A6" opacity="1" d="M34 29.364L71.8302 67.1942L78.1942 60.8302L40.364 23L34 29.364Z"></path><path id="矩形 2" fill-rule="evenodd" style="fill:#A6A6A6" opacity="1" d="M34 103L94 103L94 94L34 94L34 103Z"></path></svg>