<svg xmlns="http://www.w3.org/2000/svg" xmlns:xlink="http://www.w3.org/1999/xlink" width="265" height="281" viewBox="0 0 265 281" fill="none"><rect x="0" y="0" width="0" height="0" fill="rgba(249, 249, 249, 1)" /><g opacity="1"  transform="translate(0 0)  rotate(0)"><rect fill="#FFFFFF" opacity="1" transform="translate(0 0)  rotate(NaN)" x="0" y="0" width="265" height="281" /><mask id="bg-mask-0" fill="white"><use transform="translate(0 0)  rotate(NaN)" xlink:href="#path_0"></use></mask><g mask="url(#bg-mask-0)" ><path id="圆形 1" fill-rule="evenodd" style="fill:#CDCDCD" opacity="1" d="M133.5,78.58c-29.23,0 -52.92,23.69 -52.92,52.92c0,29.23 23.69,52.93 52.92,52.93c29.23,0 52.93,-23.7 52.93,-52.93c0,-29.23 -23.7,-52.92 -52.93,-52.92zM206,131.5c0,40.04 -32.46,72.5 -72.5,72.5c-40.04,0 -72.5,-32.46 -72.5,-72.5c0,-40.04 32.46,-72.5 72.5,-72.5c40.04,0 72.5,32.46 72.5,72.5z"></path><path id="圆形 1" fill-rule="evenodd" fill="url(#linear_0)" opacity="1" d="M133.5,78.58c-29.23,0 -52.92,23.69 -52.92,52.92c0,29.23 23.69,52.93 52.92,52.93c29.23,0 52.93,-23.7 52.93,-52.93c0,-29.23 -23.7,-52.92 -52.93,-52.92zM206,131.5c0,40.04 -32.46,72.5 -72.5,72.5c-40.04,0 -72.5,-32.46 -72.5,-72.5c0,-40.04 32.46,-72.5 72.5,-72.5c40.04,0 72.5,32.46 72.5,72.5z"></path><path id="圆形 1" fill-rule="evenodd" fill="url(#linear_1)" opacity="1" d="M133.5,78.58c-29.23,0 -52.92,23.69 -52.92,52.92c0,29.23 23.69,52.93 52.92,52.93c29.23,0 52.93,-23.7 52.93,-52.93c0,-29.23 -23.7,-52.92 -52.93,-52.92zM206,131.5c0,40.04 -32.46,72.5 -72.5,72.5c-40.04,0 -72.5,-32.46 -72.5,-72.5c0,-40.04 32.46,-72.5 72.5,-72.5c40.04,0 72.5,32.46 72.5,72.5z"></path><path id="圆形 1" fill-rule="evenodd" fill="url(#linear_2)" opacity="1" d="M133.5,78.58c-29.23,0 -52.92,23.69 -52.92,52.92c0,29.23 23.69,52.93 52.92,52.93c29.23,0 52.93,-23.7 52.93,-52.93c0,-29.23 -23.7,-52.92 -52.93,-52.92zM206,131.5c0,40.04 -32.46,72.5 -72.5,72.5c-40.04,0 -72.5,-32.46 -72.5,-72.5c0,-40.04 32.46,-72.5 72.5,-72.5c40.04,0 72.5,32.46 72.5,72.5z"></path><path id="圆形 1" fill-rule="evenodd" fill="url(#linear_3)" opacity="1" d="M133.5,78.58c-29.23,0 -52.92,23.69 -52.92,52.92c0,29.23 23.69,52.93 52.92,52.93c29.23,0 52.93,-23.7 52.93,-52.93c0,-29.23 -23.7,-52.92 -52.93,-52.92zM206,131.5c0,40.04 -32.46,72.5 -72.5,72.5c-40.04,0 -72.5,-32.46 -72.5,-72.5c0,-40.04 32.46,-72.5 72.5,-72.5c40.04,0 72.5,32.46 72.5,72.5z"></path><path id="矩形 1" fill-rule="evenodd" style="fill:#CCCCCC" opacity="1" d="M19 159.5L56 159.5L56 103L19 103L19 159.5Z"></path><path id="矩形 1" fill-rule="evenodd" fill="url(#linear_4)" opacity="1" d="M19 159.5L56 159.5L56 103L19 103L19 159.5Z"></path><path id="矩形 1" fill-rule="evenodd" fill="url(#linear_5)" opacity="1" d="M19 159.5L56 159.5L56 103L19 103L19 159.5Z"></path><path id="矩形 1" fill-rule="evenodd" fill="url(#linear_6)" opacity="1" d="M19 159.5L56 159.5L56 103L19 103L19 159.5Z"></path><path id="矩形 1" fill-rule="evenodd" fill="url(#linear_7)" opacity="1" d="M19 159.5L56 159.5L56 103L19 103L19 159.5Z"></path><path id="矩形 1" fill-rule="evenodd" style="fill:#CCCCCC" opacity="1" d="M150.165 210L168.165 241.177L214.93 214.177L196.93 183L150.165 210Z"></path><path id="矩形 1" fill-rule="evenodd" fill="url(#linear_8)" opacity="1" d="M150.165 210L168.165 241.177L214.93 214.177L196.93 183L150.165 210Z"></path><path id="矩形 1" fill-rule="evenodd" fill="url(#linear_9)" opacity="1" d="M150.165 210L168.165 241.177L214.93 214.177L196.93 183L150.165 210Z"></path><path id="矩形 1" fill-rule="evenodd" fill="url(#linear_10)" opacity="1" d="M150.165 210L168.165 241.177L214.93 214.177L196.93 183L150.165 210Z"></path><path id="矩形 1" fill-rule="evenodd" fill="url(#linear_11)" opacity="1" d="M150.165 210L168.165 241.177L214.93 214.177L196.93 183L150.165 210Z"></path><path id="矩形 1" fill-rule="evenodd" style="fill:#CCCCCC" opacity="1" d="M194.765 79.0391L212.765 47.8621L166 20.8621L148 52.0391L194.765 79.0391Z"></path><path id="矩形 1" fill-rule="evenodd" fill="url(#linear_12)" opacity="1" d="M194.765 79.0391L212.765 47.8621L166 20.8621L148 52.0391L194.765 79.0391Z"></path><path id="矩形 1" fill-rule="evenodd" fill="url(#linear_13)" opacity="1" d="M194.765 79.0391L212.765 47.8621L166 20.8621L148 52.0391L194.765 79.0391Z"></path><path id="矩形 1" fill-rule="evenodd" fill="url(#linear_14)" opacity="1" d="M194.765 79.0391L212.765 47.8621L166 20.8621L148 52.0391L194.765 79.0391Z"></path><path id="矩形 1" fill-rule="evenodd" fill="url(#linear_15)" opacity="1" d="M194.765 79.0391L212.765 47.8621L166 20.8621L148 52.0391L194.765 79.0391Z"></path><path id="矩形 1" fill-rule="evenodd" style="fill:#CCCCCC" opacity="1" d="M246.863 159.5L209.863 159.5L209.863 103L246.863 103L246.863 159.5Z"></path><path id="矩形 1" fill-rule="evenodd" fill="url(#linear_16)" opacity="1" d="M246.863 159.5L209.863 159.5L209.863 103L246.863 103L246.863 159.5Z"></path><path id="矩形 1" fill-rule="evenodd" fill="url(#linear_17)" opacity="1" d="M246.863 159.5L209.863 159.5L209.863 103L246.863 103L246.863 159.5Z"></path><path id="矩形 1" fill-rule="evenodd" fill="url(#linear_18)" opacity="1" d="M246.863 159.5L209.863 159.5L209.863 103L246.863 103L246.863 159.5Z"></path><path id="矩形 1" fill-rule="evenodd" fill="url(#linear_19)" opacity="1" d="M246.863 159.5L209.863 159.5L209.863 103L246.863 103L246.863 159.5Z"></path><path id="矩形 1" fill-rule="evenodd" style="fill:#CCCCCC" opacity="1" d="M115.698 210L97.6984 241.177L50.933 214.177L68.933 183L115.698 210Z"></path><path id="矩形 1" fill-rule="evenodd" fill="url(#linear_20)" opacity="1" d="M115.698 210L97.6984 241.177L50.933 214.177L68.933 183L115.698 210Z"></path><path id="矩形 1" fill-rule="evenodd" fill="url(#linear_21)" opacity="1" d="M115.698 210L97.6984 241.177L50.933 214.177L68.933 183L115.698 210Z"></path><path id="矩形 1" fill-rule="evenodd" fill="url(#linear_22)" opacity="1" d="M115.698 210L97.6984 241.177L50.933 214.177L68.933 183L115.698 210Z"></path><path id="矩形 1" fill-rule="evenodd" fill="url(#linear_23)" opacity="1" d="M115.698 210L97.6984 241.177L50.933 214.177L68.933 183L115.698 210Z"></path><path id="矩形 1" fill-rule="evenodd" style="fill:#CCCCCC" opacity="1" d="M71.0981 79.0391L53.0981 47.8621L99.8635 20.8621L117.863 52.0391L71.0981 79.0391Z"></path><path id="矩形 1" fill-rule="evenodd" fill="url(#linear_24)" opacity="1" d="M71.0981 79.0391L53.0981 47.8621L99.8635 20.8621L117.863 52.0391L71.0981 79.0391Z"></path><path id="矩形 1" fill-rule="evenodd" fill="url(#linear_25)" opacity="1" d="M71.0981 79.0391L53.0981 47.8621L99.8635 20.8621L117.863 52.0391L71.0981 79.0391Z"></path><path id="矩形 1" fill-rule="evenodd" fill="url(#linear_26)" opacity="1" d="M71.0981 79.0391L53.0981 47.8621L99.8635 20.8621L117.863 52.0391L71.0981 79.0391Z"></path><path id="矩形 1" fill-rule="evenodd" fill="url(#linear_27)" opacity="1" d="M71.0981 79.0391L53.0981 47.8621L99.8635 20.8621L117.863 52.0391L71.0981 79.0391Z"></path><path id="多边形 1" fill-rule="evenodd" style="fill:#CCCCCC" opacity="1" d="M171.971 108.502L133.001 86.0034L94.0294 108.503L94.0288 153.502L132.999 176.001L171.971 153.501L171.971 108.502Z"></path><path id="多边形 1" fill-rule="evenodd" fill="url(#linear_28)" opacity="1" d="M171.971 108.502L133.001 86.0034L94.0294 108.503L94.0288 153.502L132.999 176.001L171.971 153.501L171.971 108.502Z"></path><path id="多边形 1" fill-rule="evenodd" fill="url(#linear_29)" opacity="1" d="M171.971 108.502L133.001 86.0034L94.0294 108.503L94.0288 153.502L132.999 176.001L171.971 153.501L171.971 108.502Z"></path><path id="多边形 1" fill-rule="evenodd" fill="url(#linear_30)" opacity="1" d="M171.971 108.502L133.001 86.0034L94.0294 108.503L94.0288 153.502L132.999 176.001L171.971 153.501L171.971 108.502Z"></path><path id="多边形 1" fill-rule="evenodd" fill="url(#linear_31)" opacity="1" d="M171.971 108.502L133.001 86.0034L94.0294 108.503L94.0288 153.502L132.999 176.001L171.971 153.501L171.971 108.502Z"></path></g></g><defs><rect id="path_0" x="0" y="0" width="265" height="281" /><linearGradient id="linear_0" x1="50%" y1="100%" x2="51%" y2="0%" gradientUnits="objectBoundingBox"><stop offset="0" stop-color="#FDFBFB" stop-opacity="1" /><stop offset="1" stop-color="#EBEDEE" stop-opacity="1" /></linearGradient><linearGradient id="linear_1" x1="50%" y1="100%" x2="51%" y2="0%" gradientUnits="objectBoundingBox"><stop offset="0" stop-color="#FDFBFB" stop-opacity="1" /><stop offset="1" stop-color="#EBEDEE" stop-opacity="1" /></linearGradient><linearGradient id="linear_2" x1="100%" y1="50%" x2="0%" y2="50%" gradientUnits="objectBoundingBox"><stop offset="0" stop-color="#BDBBBE" stop-opacity="1" /><stop offset="1" stop-color="#9D9EA3" stop-opacity="1" /></linearGradient><linearGradient id="linear_3" x1="100%" y1="50%" x2="0%" y2="50%" gradientUnits="objectBoundingBox"><stop offset="0" stop-color="#BDBBBE" stop-opacity="1" /><stop offset="1" stop-color="#9D9EA3" stop-opacity="1" /></linearGradient><linearGradient id="linear_4" x1="50%" y1="100%" x2="51%" y2="0%" gradientUnits="objectBoundingBox"><stop offset="0" stop-color="#FDFBFB" stop-opacity="1" /><stop offset="1" stop-color="#EBEDEE" stop-opacity="1" /></linearGradient><linearGradient id="linear_5" x1="50%" y1="100%" x2="51%" y2="0%" gradientUnits="objectBoundingBox"><stop offset="0" stop-color="#FDFBFB" stop-opacity="1" /><stop offset="1" stop-color="#EBEDEE" stop-opacity="1" /></linearGradient><linearGradient id="linear_6" x1="100%" y1="50%" x2="0%" y2="50%" gradientUnits="objectBoundingBox"><stop offset="0" stop-color="#BDBBBE" stop-opacity="1" /><stop offset="1" stop-color="#9D9EA3" stop-opacity="1" /></linearGradient><linearGradient id="linear_7" x1="100%" y1="50%" x2="0%" y2="50%" gradientUnits="objectBoundingBox"><stop offset="0" stop-color="#BDBBBE" stop-opacity="1" /><stop offset="1" stop-color="#9D9EA3" stop-opacity="1" /></linearGradient><linearGradient id="linear_8" x1="159.16499891038123" y1="225.58845538192116" x2="205.930370504902" y2="198.58845501846946" gradientUnits="userSpaceOnUse"><stop offset="0" stop-color="#FDFBFB" stop-opacity="1" /><stop offset="1" stop-color="#EBEDEE" stop-opacity="1" /></linearGradient><linearGradient id="linear_9" x1="159.16499891038123" y1="225.58845538192116" x2="205.930370504902" y2="198.58845501846946" gradientUnits="userSpaceOnUse"><stop offset="0" stop-color="#FDFBFB" stop-opacity="1" /><stop offset="1" stop-color="#EBEDEE" stop-opacity="1" /></linearGradient><linearGradient id="linear_10" x1="191.54768482879217" y1="227.6769123983689" x2="173.54768458649102" y2="196.49999800202173" gradientUnits="userSpaceOnUse"><stop offset="0" stop-color="#BDBBBE" stop-opacity="1" /><stop offset="1" stop-color="#9D9EA3" stop-opacity="1" /></linearGradient><linearGradient id="linear_11" x1="191.54768482879217" y1="227.6769123983689" x2="173.54768458649102" y2="196.49999800202173" gradientUnits="userSpaceOnUse"><stop offset="0" stop-color="#BDBBBE" stop-opacity="1" /><stop offset="1" stop-color="#9D9EA3" stop-opacity="1" /></linearGradient><linearGradient id="linear_12" x1="203.76537085333115" y1="63.45055477842412" x2="156.99999856195205" y2="36.45055562196651" gradientUnits="userSpaceOnUse"><stop offset="0" stop-color="#FDFBFB" stop-opacity="1" /><stop offset="1" stop-color="#EBEDEE" stop-opacity="1" /></linearGradient><linearGradient id="linear_13" x1="203.76537085333115" y1="63.45055477842412" x2="156.99999856195205" y2="36.45055562196651" gradientUnits="userSpaceOnUse"><stop offset="0" stop-color="#FDFBFB" stop-opacity="1" /><stop offset="1" stop-color="#EBEDEE" stop-opacity="1" /></linearGradient><linearGradient id="linear_14" x1="189.3826844264608" y1="34.36209776973561" x2="171.3826849888224" y2="65.53901263065501" gradientUnits="userSpaceOnUse"><stop offset="0" stop-color="#BDBBBE" stop-opacity="1" /><stop offset="1" stop-color="#9D9EA3" stop-opacity="1" /></linearGradient><linearGradient id="linear_15" x1="189.3826844264608" y1="34.36209776973561" x2="171.3826849888224" y2="65.53901263065501" gradientUnits="userSpaceOnUse"><stop offset="0" stop-color="#BDBBBE" stop-opacity="1" /><stop offset="1" stop-color="#9D9EA3" stop-opacity="1" /></linearGradient><linearGradient id="linear_16" x1="228.363" y1="103" x2="228.363" y2="159.5" gradientUnits="userSpaceOnUse"><stop offset="0" stop-color="#FDFBFB" stop-opacity="1" /><stop offset="1" stop-color="#EBEDEE" stop-opacity="1" /></linearGradient><linearGradient id="linear_17" x1="228.363" y1="103" x2="228.363" y2="159.5" gradientUnits="userSpaceOnUse"><stop offset="0" stop-color="#FDFBFB" stop-opacity="1" /><stop offset="1" stop-color="#EBEDEE" stop-opacity="1" /></linearGradient><linearGradient id="linear_18" x1="209.863" y1="131.25" x2="246.863" y2="131.25" gradientUnits="userSpaceOnUse"><stop offset="0" stop-color="#BDBBBE" stop-opacity="1" /><stop offset="1" stop-color="#9D9EA3" stop-opacity="1" /></linearGradient><linearGradient id="linear_19" x1="209.863" y1="131.25" x2="246.863" y2="131.25" gradientUnits="userSpaceOnUse"><stop offset="0" stop-color="#BDBBBE" stop-opacity="1" /><stop offset="1" stop-color="#9D9EA3" stop-opacity="1" /></linearGradient><linearGradient id="linear_20" x1="59.93300081772986" y1="198.58845501846946" x2="106.69837241225062" y2="225.58845538192116" gradientUnits="userSpaceOnUse"><stop offset="0" stop-color="#FDFBFB" stop-opacity="1" /><stop offset="1" stop-color="#EBEDEE" stop-opacity="1" /></linearGradient><linearGradient id="linear_21" x1="59.93300081772986" y1="198.58845501846946" x2="106.69837241225062" y2="225.58845538192116" gradientUnits="userSpaceOnUse"><stop offset="0" stop-color="#FDFBFB" stop-opacity="1" /><stop offset="1" stop-color="#EBEDEE" stop-opacity="1" /></linearGradient><linearGradient id="linear_22" x1="74.31568649383968" y1="227.6769123983689" x2="92.3156867361408" y2="196.49999800202173" gradientUnits="userSpaceOnUse"><stop offset="0" stop-color="#BDBBBE" stop-opacity="1" /><stop offset="1" stop-color="#9D9EA3" stop-opacity="1" /></linearGradient><linearGradient id="linear_23" x1="74.31568649383968" y1="227.6769123983689" x2="92.3156867361408" y2="196.49999800202173" gradientUnits="userSpaceOnUse"><stop offset="0" stop-color="#BDBBBE" stop-opacity="1" /><stop offset="1" stop-color="#9D9EA3" stop-opacity="1" /></linearGradient><linearGradient id="linear_24" x1="108.86346894598252" y1="36.45055562196651" x2="62.098096654603424" y2="63.45055477842412" gradientUnits="userSpaceOnUse"><stop offset="0" stop-color="#FDFBFB" stop-opacity="1" /><stop offset="1" stop-color="#EBEDEE" stop-opacity="1" /></linearGradient><linearGradient id="linear_25" x1="108.86346894598252" y1="36.45055562196651" x2="62.098096654603424" y2="63.45055477842412" gradientUnits="userSpaceOnUse"><stop offset="0" stop-color="#FDFBFB" stop-opacity="1" /><stop offset="1" stop-color="#EBEDEE" stop-opacity="1" /></linearGradient><linearGradient id="linear_26" x1="76.48078308147376" y1="34.36209776973561" x2="94.48078251911218" y2="65.53901263065501" gradientUnits="userSpaceOnUse"><stop offset="0" stop-color="#BDBBBE" stop-opacity="1" /><stop offset="1" stop-color="#9D9EA3" stop-opacity="1" /></linearGradient><linearGradient id="linear_27" x1="76.48078308147376" y1="34.36209776973561" x2="94.48078251911218" y2="65.53901263065501" gradientUnits="userSpaceOnUse"><stop offset="0" stop-color="#BDBBBE" stop-opacity="1" /><stop offset="1" stop-color="#9D9EA3" stop-opacity="1" /></linearGradient><linearGradient id="linear_28" x1="115.02129912492737" y1="167.3634772071733" x2="192.9635851157953" y2="122.36347660142046" gradientUnits="userSpaceOnUse"><stop offset="0" stop-color="#FDFBFB" stop-opacity="1" /><stop offset="1" stop-color="#EBEDEE" stop-opacity="1" /></linearGradient><linearGradient id="linear_29" x1="115.02129912492737" y1="167.3634772071733" x2="192.9635851157953" y2="122.36347660142046" gradientUnits="userSpaceOnUse"><stop offset="0" stop-color="#FDFBFB" stop-opacity="1" /><stop offset="1" stop-color="#EBEDEE" stop-opacity="1" /></linearGradient><linearGradient id="linear_30" x1="176.49244242323772" y1="183.83461989973082" x2="131.49244181748492" y2="105.89233390886292" gradientUnits="userSpaceOnUse"><stop offset="0" stop-color="#BDBBBE" stop-opacity="1" /><stop offset="1" stop-color="#9D9EA3" stop-opacity="1" /></linearGradient><linearGradient id="linear_31" x1="176.49244242323772" y1="183.83461989973082" x2="131.49244181748492" y2="105.89233390886292" gradientUnits="userSpaceOnUse"><stop offset="0" stop-color="#BDBBBE" stop-opacity="1" /><stop offset="1" stop-color="#9D9EA3" stop-opacity="1" /></linearGradient></defs></svg>