<svg xmlns="http://www.w3.org/2000/svg" xmlns:xlink="http://www.w3.org/1999/xlink" width="500" height="500" viewBox="0 0 500 500" fill="none"><g opacity="1"  transform="translate(0 0)  rotate(0)"><mask id="bg-mask-0" fill="white"><use transform="translate(0 0)  rotate(0)" xlink:href="#path_0"></use></mask><g mask="url(#bg-mask-0)" ><path id="路径 1" fill-rule="evenodd" fill="url(#linear_0)" opacity="1" d="M498.5 193.91C498.5 193.91 483.16 0.98 254.37 1C199.57 1 144.76 16.04 90.73 56.8C11.18 116.87 -1.5 196.04 -1.5 255.82C-1.5 315.59 9.89 376.45 76.73 439.05C143.63 501.7 212.79 500.61 262.69 500.99C312.58 501.34 384 492.75 442.21 440.14C500.4 387.52 492.23 318.56 492.23 318.56L353.16 310.92C353.16 310.92 345.07 387.27 272.51 387.27C199.96 387.27 157.63 326.19 157.63 249.84C157.63 173.48 195.91 120.06 270.5 121.96C345.07 123.87 353.14 192.57 353.14 192.57L498.5 193.91Z"></path><path id="路径 1" fill-rule="evenodd" style="fill:#FE951D" opacity="1" d="M315.835,297.339c-7.35,2.43 -15.3,3.86 -23.52,4.19c2.01,-0.09 12.68,-0.76 23.52,-4.19zM351.355,237.979c2.11,4.68 3.22,9.65 3.28,14.72c-0.21,-5.55 -1.77,-11.02 -3.28,-14.72zM338.535,221.429c2.45,2.07 4.64,4.28 6.56,6.58c-3.04,-3.39 -6.13,-6.19 -6.56,-6.58zM326.715,292.739c0.66,-0.36 1.32,-0.75 1.96,-1.16c4.22,-2.6 7.39,-4.78 9.75,-6.61c-0.97,0.79 -1.95,1.56 -2.96,2.32c-2.74,2.02 -5.66,3.84 -8.75,5.45zM243.715,288.669c-0.51,-0.35 -1.17,-0.54 -1.85,-0.56h-0.02c-2.77,-1.94 -5.32,-4.02 -7.62,-6.28c0.14,-0.56 0,-1.19 -0.49,-1.73c-0.5,-0.57 -1.01,-1.15 -1.5,-1.73c-0.47,-0.55 -1.23,-0.91 -2.06,-0.98c-1.43,-1.77 -2.71,-3.6 -3.83,-5.5c0.31,-0.35 0.48,-0.77 0.48,-1.22c0,-0.27 -0.06,-0.55 -0.19,-0.82c-2.62,-5.27 -3.98,-10.91 -3.98,-16.67c0,-12.88 6.82,-25.02 19.19,-34.17c12.48,-9.22 29.11,-14.31 46.81,-14.31c12.72,0 24.88,2.63 35.35,7.52c0,0 29.5,65.93 -32.05,89.32c-1.1,0.05 -2.19,0.06 -3.3,0.06c-16.84,0 -32.69,-4.56 -44.94,-12.93zM253.685,247.269l-5.9,-4.67l-5.52,4.37l5.9,4.68zM258.965,222.709l5.9,4.69l5.5,-4.36l-5.9,-4.69zM258.925,229.379l-5.52,4.37l5.9,4.67l5.5,-4.37zM242.265,227.139l5.9,4.67l5.5,-4.37l-5.9,-4.67zM245.335,238.449l-5.9,-4.67l-5.53,4.38l5.9,4.67z"></path><path id="路径 2" fill-rule="evenodd" style="fill:#B4E84B" opacity="1" d="M261.655 185.345C261.285 185.345 260.905 185.355 260.545 185.375C260.505 185.375 260.455 185.375 260.395 185.435C260.335 185.495 260.355 185.535 260.355 185.565C260.395 185.675 260.415 185.775 260.455 185.885C264.075 189.235 273.795 197.735 282.455 200.105C283.165 200.175 283.885 200.205 284.565 200.205C284.945 200.205 285.315 200.195 285.675 200.175C285.715 200.175 285.765 200.175 285.825 200.115C285.885 200.055 285.865 200.015 285.865 199.985C284.775 196.345 281.115 192.435 276.095 189.535C271.485 186.865 266.205 185.345 261.655 185.345Z"></path><path id="路径 3" fill-rule="evenodd" style="fill:#000000" opacity="1" d="M295.18,200.43c36.51,2.43 65.13,25.13 65.17,52.75c0,29.22 -32.09,52.94 -71.66,52.94c-18.77,0 -35.85,-5.35 -48.63,-14.07c-1.97,-1.34 -0.76,-3.91 1.84,-3.92h0.02c0.66,0 1.32,0.19 1.83,0.54c12.25,8.37 28.11,12.93 44.94,12.93c1.1,0 2.21,-0.01 3.3,-0.06c0.04,0 0.15,0 0.34,-0.01c8.24,-0.31 16.17,-1.75 23.53,-4.19c3.71,-1.18 7.44,-2.68 10.87,-4.59c3.1,-1.61 6.02,-3.43 8.75,-5.44c1.04,-0.75 2.02,-1.54 2.96,-2.33c6.09,-4.7 6.96,-7 7.39,-7.55c0.6,-0.78 7.56,-9.36 8.2,-17.41c0.57,-2.36 0.74,-4.85 0.64,-7.32c-0.05,-5.07 -1.17,-10.02 -3.28,-14.72c-0.36,-2.75 -3.28,-6.64 -6.26,-9.96c-1.92,-2.31 -4.11,-4.5 -6.56,-6.58l-0.05,-0.04c0,0 -7.96,-7.18 -14.48,-9.17c-10.48,-4.89 -22.64,-7.52 -35.37,-7.52c-17.7,0 -34.33,5.09 -46.81,14.31c-12.38,9.14 -19.19,21.28 -19.19,34.18c0,5.76 1.36,11.4 3.98,16.66c0.13,0.27 0.19,0.56 0.19,0.82c0,0.44 -0.17,0.87 -0.47,1.23c-0.51,0.6 -1.36,1 -2.36,1c-1.17,0 -2.2,-0.57 -2.64,-1.43c-2.82,-5.72 -4.37,-11.88 -4.37,-18.3c0,-24.78 23.06,-45.63 54.18,-51.39c-1.47,-0.63 -2.94,-1.34 -4.36,-2.16c-6.37,-3.68 -10.57,-8.49 -11.95,-13.02c-0.85,-2.77 1.64,-5.47 5.24,-5.7c5.85,-0.34 12.94,1.35 19.31,5.02c3.16,1.82 5.78,3.92 7.8,6.15c-1.34,-12.18 5.34,-18.91 5.69,-19.25c0.98,-0.96 2.78,-1.11 3.98,-0.33c1.21,0.77 1.42,2.18 0.44,3.13c-0.06,0.06 -2.21,2.28 -3.55,6.39c-1.22,3.82 -2,10.11 1.4,18.41zM285.9,199.98c-1.11,-3.65 -4.77,-7.55 -9.78,-10.44c-4.62,-2.66 -9.9,-4.19 -14.44,-4.19c-0.38,0 -0.76,0.01 -1.11,0.03c-0.04,0 -0.1,0 -0.16,0.05c-0.05,0.06 -0.05,0.11 -0.03,0.14c0.02,0.1 0.05,0.21 0.09,0.31c1.21,3.55 4.79,7.33 9.67,10.13c3.92,2.26 8.32,3.71 12.33,4.09c0.72,0.08 1.41,0.11 2.11,0.11c0.38,0 0.76,0 1.11,-0.03c0.04,0 0.1,0 0.16,-0.06c0.05,-0.06 0.03,-0.11 0.05,-0.14z"></path><path id="路径 4" fill-rule="evenodd" style="fill:#000000" opacity="1" d="M233.756,280.113c0.49,0.54 0.62,1.17 0.49,1.75c-0.24,0.98 -1.32,1.8 -2.77,1.8c-0.9,0 -1.75,-0.34 -2.28,-0.92c-0.58,-0.63 -1.13,-1.25 -1.66,-1.9c-0.32,-0.38 -0.47,-0.8 -0.47,-1.22c0,-1.16 1.17,-2.24 2.83,-2.24c0.09,0 0.21,0 0.3,0.02c0.83,0.06 1.58,0.41 2.05,0.98c0.49,0.58 0.98,1.17 1.51,1.73zM270.386,223.043l-5.52,4.35l-5.9,-4.67l5.5,-4.37zM259.306,238.423l-5.92,-4.69l5.52,-4.35l5.9,4.67zM253.666,227.443l-5.51,4.37l-5.91,-4.69l5.52,-4.35zM239.416,233.783l5.9,4.69l-5.51,4.35l-5.92,-4.67zM242.246,246.973l5.52,-4.37l5.9,4.68l-5.51,4.36z"></path><path id="路径 5" fill-rule="evenodd" style="fill:#E27A13" opacity="1" d="M291.953,301.545c61.55,-23.39 32.09,-89.28 32.05,-89.31c6.52,1.98 14.48,9.16 14.48,9.16l0.05,0.05c0.45,0.38 3.53,3.19 6.56,6.58c2.96,3.31 5.88,7.19 6.26,9.95c1.51,3.7 3.07,9.18 3.28,14.73c0.1,2.48 -0.07,4.95 -0.64,7.31c-0.64,8.07 -7.62,16.65 -8.2,17.41c-0.43,0.56 -1.3,2.85 -7.39,7.56c-2.38,1.82 -5.52,4.01 -9.75,6.61c-0.64,0.4 -1.3,0.79 -1.96,1.16c-3.41,1.91 -7.16,3.4 -10.87,4.58c-10.84,3.42 -21.49,4.09 -23.53,4.19c-0.19,0.02 -0.3,0.02 -0.34,0.02zM324.003,212.235v0z"></path><path id="路径 1" fill-rule="evenodd" style="fill:#F2A83C" opacity="1" d="M390.707 265.744C375.522 284.509 354.802 287.196 356.19 294.69C356.894 298.455 362.607 300.314 366.523 301.594C381.143 306.358 403.771 303.808 416.365 285.729C425.365 272.803 425.976 256.617 422.686 244.619C422.164 242.719 417.823 226.935 411.631 226.713C404.498 226.451 405.656 247.259 390.707 265.744Z"></path><path id="路径 2" fill-rule="evenodd" style="fill:#CF8F33" opacity="1" d="M382.802 293.488C369.323 295.042 359.138 290.582 358.268 292.892C357.574 294.731 363.33 299.299 369.341 301.658C384.251 307.484 406.541 301.888 418.174 286.319C430.405 269.961 425.981 249.119 425.141 249.031C424.473 248.97 426.081 262.003 417.734 273.991C406.261 290.479 384.059 293.351 382.802 293.488Z"></path><path id="路径 3" fill-rule="evenodd" style="fill:#000000" opacity="1" d="M392.574 262.892C393.134 262.743 393.593 262.405 393.903 261.971L393.965 261.892C394.348 261.346 394.501 260.633 394.317 259.937C393.986 258.68 392.693 257.936 391.417 258.274C390.856 258.423 390.388 258.764 390.078 259.198L390.026 259.274C389.633 259.823 389.48 260.536 389.664 261.232C389.995 262.489 391.298 263.23 392.564 262.895C392.564 262.895 392.564 262.895 392.564 262.895C392.564 262.895 392.564 262.895 392.574 262.892Z"></path><path id="路径 4" fill-rule="evenodd" style="fill:#000000" opacity="1" d="M394.968 304.116C394.997 304.109 395.036 304.098 395.065 304.091C399.782 302.841 404.151 300.938 401.522 301.832C409.094 298.78 415.455 293.805 420.068 287.731C426.172 279.741 429.225 269.911 428.887 259.304C428.619 250.685 426.056 241.795 421.876 234.927C420.8 233.164 419.462 230.953 417.833 229.17C415.656 226.799 413.325 225.606 410.915 225.645C406.987 225.692 404.854 229.33 404.157 230.528C402.7 233.004 401.444 236.316 399.974 240.151C398.694 243.531 397.233 247.363 395.402 251.242C394.663 252.792 394.437 254.601 394.909 256.389C395.759 259.609 398.607 261.782 401.862 261.965L401.903 261.964C403.242 262.023 404.61 261.878 405.983 261.514C406.418 261.399 406.838 261.267 407.205 261.128C408.371 260.726 409.041 259.504 408.725 258.305C408.393 257.048 407.101 256.304 405.825 256.642C405.738 256.665 405.653 256.698 405.615 256.708C405.352 256.809 405.074 256.893 404.784 256.97C403.895 257.205 403.011 257.305 402.203 257.26L402.244 257.26C401.264 257.271 400.346 256.77 399.848 255.94C399.704 255.709 399.584 255.451 399.51 255.17C399.332 254.493 399.42 253.808 399.701 253.227C401.619 249.17 403.117 245.245 404.428 241.784C406.665 235.916 408.772 230.381 410.947 230.353C413.493 230.32 416.083 234.569 417.797 237.383C425.239 249.595 427.932 269.675 416.285 284.916C404.068 300.898 381.44 304.39 367.484 298.457C364.965 297.376 361.822 296.047 361.309 293.907C360.737 291.503 364.195 288.89 370.343 284.478C376.212 280.265 383.518 275.029 390.245 266.894C390.737 266.33 390.945 265.55 390.741 264.777C390.409 263.52 389.107 262.779 387.831 263.117C387.309 263.255 386.882 263.555 386.569 263.937C380.24 271.583 373.216 276.631 367.572 280.681C364.266 283.047 361.415 285.096 359.463 287.144C358.537 288.103 355.733 291.039 356.68 295.019C357.744 299.444 362.275 301.368 365.584 302.778C373.461 306.132 383.566 306.765 393.317 304.523C393.873 304.396 394.427 304.26 394.968 304.116L394.968 304.116Z"></path><path id="路径 5" fill-rule="evenodd" style="fill:#000000" opacity="1" d="M393.463,287.888c-1.266,0.336 -2.568,-0.406 -2.9,-1.663c-0.128,-0.483 -0.09,-0.969 0.074,-1.405c0.395,-1.088 1.191,-3.989 -0.092,-7.166c-1.533,-3.773 -4.894,-5.262 -5.891,-5.629c-0.702,-0.269 -1.255,-0.836 -1.456,-1.6c-0.332,-1.257 0.434,-2.546 1.701,-2.882c0.502,-0.133 1.007,-0.101 1.456,0.069c1.445,0.538 6.364,2.721 8.605,8.272c1.894,4.671 0.737,8.909 0.147,10.513c-0.257,0.71 -0.851,1.281 -1.634,1.489zM400.502,272.274c-0.009,0.003 -0.009,0.003 -0.009,0.003c-1.276,0.338 -2.569,-0.406 -2.901,-1.663c-0.045,-0.174 -0.072,-0.353 -0.077,-0.528c0.001,-0.155 -0.028,-0.344 -0.08,-0.537c-0.104,-0.396 -0.303,-0.758 -0.564,-1.04c-0.413,-0.429 -0.979,-0.693 -1.583,-0.75c-0.451,-0.139 -1.13,-0.755 -1.357,-1.616c-0.332,-1.257 0.425,-2.544 1.701,-2.882c0.406,-0.107 0.811,-0.101 1.185,-0.014c2.486,0.604 4.541,2.47 5.227,5.071c0.145,0.551 0.218,1.1 0.227,1.646c0.026,1.038 -0.686,2.024 -1.769,2.31z"></path></g></g><defs><rect id="path_0" x="0" y="0" width="500.00000000000006" height="500.00000000000006" /><linearGradient id="linear_0" x1="0%" y1="50%" x2="100%" y2="50%" gradientUnits="objectBoundingBox"><stop offset="0" stop-color="#F6D365" stop-opacity="1" /><stop offset="1" stop-color="#FDA085" stop-opacity="1" /></linearGradient></defs></svg>