<svg xmlns="http://www.w3.org/2000/svg" xmlns:xlink="http://www.w3.org/1999/xlink" width="40" height="40" viewBox="0 0 40 40" fill="none"><g opacity="1"  transform="translate(0 0)  rotate(0)"><mask id="bg-mask-0" fill="white"><use transform="translate(0 0)  rotate(0)" xlink:href="#path_0"></use></mask><g mask="url(#bg-mask-0)" ><path id="路径 1" fill-rule="evenodd" fill="url(#linear_0)" opacity="1" d="M39.88 15.51C39.88 15.51 38.65 0.0799561 20.35 0.0799561C15.97 0.0799561 11.58 1.27996 7.26 4.53996C0.890005 9.34996 -0.119995 15.68 -0.119995 20.47C-0.119995 25.25 0.790005 30.12 6.14001 35.12C11.49 40.14 17.02 40.05 21.01 40.08C25.01 40.11 30.72 39.42 35.38 35.21C40.03 31 39.38 25.48 39.38 25.48L28.25 24.87C28.25 24.87 27.61 30.98 21.8 30.98C16 30.98 12.61 26.1 12.61 19.99C12.61 13.88 15.67 9.59996 21.64 9.75996C27.61 9.90996 28.25 15.41 28.25 15.41L39.88 15.51Z"></path><path id="路径 1" fill-rule="evenodd" style="fill:#FE951D" opacity="1" d="M25.2624,23.786c-0.58,0.2 -1.22,0.31 -1.88,0.34c0.16,-0.01 1.02,-0.06 1.88,-0.34zM28.1124,19.036c0.16,0.38 0.25,0.77 0.26,1.18c-0.02,-0.44 -0.14,-0.88 -0.26,-1.18zM27.0824,17.716c0.2,0.16 0.37,0.34 0.53,0.52c-0.25,-0.27 -0.49,-0.49 -0.53,-0.52zM26.1324,23.416c0.06,-0.03 0.11,-0.06 0.16,-0.09c0.34,-0.21 0.59,-0.38 0.78,-0.53c-0.08,0.06 -0.15,0.13 -0.24,0.19c-0.21,0.16 -0.45,0.3 -0.7,0.43zM19.4924,23.096c-0.04,-0.03 -0.09,-0.05 -0.14,-0.05v0c-0.23,-0.15 -0.43,-0.32 -0.61,-0.5c0.01,-0.04 0,-0.09 -0.04,-0.14c-0.04,-0.04 -0.08,-0.09 -0.12,-0.14c-0.04,-0.04 -0.1,-0.07 -0.17,-0.08c-0.11,-0.14 -0.22,-0.28 -0.3,-0.43c0.02,-0.03 0.03,-0.07 0.03,-0.1c0,-0.02 0,-0.05 -0.01,-0.07c-0.21,-0.42 -0.32,-0.87 -0.32,-1.33c0,-1.03 0.55,-2 1.54,-2.74c0.99,-0.73 2.32,-1.14 3.74,-1.14c1.02,0 1.99,0.21 2.83,0.6c0,0 2.36,5.28 -2.57,7.15c-0.08,0 -0.17,0 -0.26,0c-1.35,0 -2.62,-0.36 -3.6,-1.03zM20.2924,19.786l-0.47,-0.38l-0.44,0.35l0.47,0.38zM20.7124,17.816l0.48,0.38l0.44,-0.35l-0.48,-0.38zM20.7124,18.346l-0.44,0.35l0.47,0.38l0.44,-0.35zM19.3824,18.176l0.47,0.37l0.44,-0.35l-0.47,-0.37zM19.6224,19.076l-0.47,-0.37l-0.44,0.35l0.47,0.37z"></path><path id="路径 2" fill-rule="evenodd" style="fill:#B4E84B" opacity="1" d="M20.9284 14.8276C20.8984 14.8276 20.8684 14.8276 20.8484 14.8276C20.8384 14.8276 20.8384 14.8276 20.8284 14.8376C20.8284 14.8376 20.8284 14.8476 20.8284 14.8476C20.8284 14.8576 20.8284 14.8576 20.8384 14.8676C21.1284 15.1376 21.9084 15.8176 22.5984 16.0076C22.6584 16.0176 22.7084 16.0176 22.7684 16.0176C22.7984 16.0176 22.8284 16.0176 22.8584 16.0176C22.8584 16.0176 22.8584 16.0176 22.8684 16.0076C22.8684 16.0076 22.8684 15.9976 22.8684 15.9976C22.7784 15.7076 22.4884 15.3976 22.0884 15.1676C21.7184 14.9476 21.2984 14.8276 20.9284 14.8276Z"></path><path id="路径 3" fill-rule="evenodd" style="fill:#000000" opacity="1" d="M23.61,16.03c2.93,0.2 5.21,2.01 5.22,4.22c0,2.34 -2.57,4.24 -5.73,4.24c-1.51,0 -2.87,-0.43 -3.9,-1.13c-0.15,-0.1 -0.06,-0.31 0.15,-0.31v0c0.06,0 0.11,0.02 0.15,0.04c0.98,0.67 2.25,1.04 3.6,1.04c0.08,0 0.17,0 0.26,-0.01c0,0 0.01,0 0.03,0c0.66,-0.02 1.29,-0.14 1.88,-0.33c0.3,-0.1 0.59,-0.22 0.87,-0.37c0.25,-0.13 0.48,-0.27 0.7,-0.44c0.08,-0.06 0.16,-0.12 0.24,-0.18c0.48,-0.38 0.55,-0.56 0.59,-0.61c0.04,-0.06 0.6,-0.74 0.65,-1.39c0.05,-0.19 0.06,-0.39 0.05,-0.58c0,-0.41 -0.09,-0.81 -0.26,-1.18c-0.03,-0.22 -0.26,-0.53 -0.5,-0.8c-0.15,-0.18 -0.33,-0.36 -0.52,-0.52l-0.01,-0.01c0,0 -0.64,-0.57 -1.16,-0.73c-0.84,-0.39 -1.81,-0.6 -2.83,-0.6c-1.41,0 -2.74,0.4 -3.74,1.14c-0.99,0.73 -1.54,1.7 -1.54,2.74c0,0.46 0.11,0.91 0.32,1.33c0.01,0.02 0.02,0.04 0.02,0.06c0,0.04 -0.02,0.07 -0.04,0.1c-0.04,0.05 -0.11,0.08 -0.19,0.08c-0.09,0 -0.18,-0.04 -0.21,-0.11c-0.23,-0.46 -0.35,-0.95 -0.35,-1.47c0,-1.98 1.84,-3.65 4.33,-4.11c-0.11,-0.05 -0.23,-0.1 -0.34,-0.17c-0.51,-0.29 -0.85,-0.68 -0.96,-1.04c-0.07,-0.22 0.13,-0.44 0.42,-0.46c0.47,-0.02 1.03,0.11 1.54,0.4c0.26,0.15 0.47,0.32 0.63,0.5c-0.11,-0.98 0.42,-1.52 0.45,-1.54c0.08,-0.08 0.22,-0.09 0.32,-0.03c0.1,0.06 0.11,0.17 0.04,0.25c-0.01,0.01 -0.18,0.18 -0.29,0.51c-0.1,0.31 -0.16,0.81 0.11,1.47zM22.87,16c-0.09,-0.29 -0.38,-0.61 -0.78,-0.84c-0.37,-0.21 -0.79,-0.33 -1.16,-0.33c-0.03,0 -0.06,0 -0.08,0c-0.01,0 -0.01,0 -0.02,0c0,0.01 0,0.01 0,0.02c0,0 0,0.01 0.01,0.02c0.09,0.28 0.38,0.59 0.77,0.81c0.32,0.18 0.67,0.3 0.99,0.33c0.05,0 0.11,0.01 0.17,0.01c0.03,0 0.06,0 0.09,-0.01c0,0 0,0 0.01,0c0,-0.01 0,-0.01 0,-0.01z"></path><path id="路径 4" fill-rule="evenodd" style="fill:#000000" opacity="1" d="M18.7053,22.4083c0.03,0.04 0.05,0.09 0.03,0.14c-0.02,0.08 -0.1,0.15 -0.22,0.15c-0.07,0 -0.14,-0.03 -0.18,-0.08c-0.05,-0.05 -0.09,-0.1 -0.13,-0.15c-0.03,-0.03 -0.04,-0.06 -0.04,-0.1c0,-0.09 0.09,-0.18 0.23,-0.18c0,0 0.01,0 0.02,0c0.07,0.01 0.13,0.04 0.16,0.08c0.04,0.05 0.08,0.1 0.13,0.14zM21.6353,17.8383l-0.45,0.35l-0.47,-0.37l0.44,-0.35zM20.7453,19.0783l-0.47,-0.38l0.44,-0.35l0.47,0.38zM20.2953,18.1983l-0.44,0.35l-0.48,-0.38l0.45,-0.35zM19.1553,18.6983l0.47,0.38l-0.44,0.35l-0.47,-0.38zM19.3753,19.7583l0.45,-0.35l0.47,0.37l-0.44,0.35z"></path><path id="路径 5" fill-rule="evenodd" style="fill:#E27A13" opacity="1" d="M23.3562,24.1188c4.92,-1.87 2.57,-7.14 2.56,-7.14c0.53,0.16 1.16,0.73 1.16,0.73l0.01,0.01c0.03,0.03 0.28,0.25 0.52,0.52c0.24,0.27 0.47,0.58 0.5,0.8c0.12,0.3 0.25,0.73 0.26,1.18c0.01,0.2 0,0.39 -0.05,0.58c-0.05,0.65 -0.61,1.33 -0.65,1.4c-0.04,0.04 -0.11,0.22 -0.59,0.6c-0.19,0.15 -0.45,0.32 -0.78,0.53c-0.05,0.03 -0.11,0.06 -0.16,0.09c-0.27,0.15 -0.57,0.27 -0.87,0.37c-0.87,0.27 -1.72,0.33 -1.88,0.33c-0.02,0 -0.03,0 -0.03,0zM25.9162,16.9788v0z"></path><path id="路径 1" fill-rule="evenodd" style="fill:#F2A83C" opacity="1" d="M31.2547 21.2583C30.0376 22.7602 28.3865 22.97 28.4938 23.5727C28.5535 23.8775 29.0065 24.0265 29.3231 24.1288C30.4897 24.5128 32.3057 24.3006 33.3101 22.8552C34.0314 21.8261 34.0824 20.5298 33.8176 19.5655C33.7696 19.423 33.4257 18.1589 32.9332 18.1342C32.3607 18.1204 32.4576 19.781 31.2547 21.2583Z"></path><path id="路径 2" fill-rule="evenodd" style="fill:#CF8F33" opacity="1" d="M30.624 23.4787C29.5489 23.598 28.7319 23.2455 28.6568 23.4309C28.6029 23.5797 29.0708 23.9419 29.5463 24.1367C30.7429 24.5955 32.5195 24.1558 33.4514 22.9054C34.431 21.601 34.0817 19.9245 34.0089 19.9231C33.9555 19.9166 34.0855 20.958 33.4191 21.9208C32.5051 23.2389 30.7258 23.4724 30.624 23.4787Z"></path><path id="路径 3" fill-rule="evenodd" style="fill:#000000" opacity="1" d="M31.4057 21.0316C31.4502 21.0198 31.4874 20.9924 31.5124 20.9578L31.517 20.9515C31.5477 20.9071 31.5608 20.8509 31.546 20.7948C31.5194 20.6943 31.4149 20.6351 31.3134 20.662C31.2679 20.674 31.2317 20.7012 31.2067 20.7357L31.2021 20.7421C31.1702 20.7858 31.1583 20.8427 31.1731 20.8988C31.1997 20.9993 31.3033 21.0588 31.4057 21.0316C31.4057 21.0316 31.4057 21.0316 31.4057 21.0316C31.4057 21.0316 31.4057 21.0316 31.4057 21.0316Z"></path><path id="路径 4" fill-rule="evenodd" style="fill:#000000" opacity="1" d="M31.6021 24.3314C31.6021 24.3314 31.6021 24.3314 31.6021 24.3314C31.979 24.2315 32.3311 24.0761 32.121 24.1421C32.7289 23.8983 33.2354 23.5055 33.6024 23.0151C34.0961 22.3774 34.3331 21.5904 34.3076 20.7489C34.2887 20.0504 34.0806 19.3401 33.751 18.7963C33.6618 18.6544 33.5528 18.4764 33.4224 18.3351C33.2478 18.1435 33.067 18.0465 32.8706 18.0468C32.5628 18.056 32.392 18.3495 32.3325 18.4377C32.2212 18.643 32.1156 18.909 31.9983 19.209C31.8952 19.4846 31.7778 19.7847 31.6341 20.1021C31.5726 20.2218 31.56 20.37 31.5957 20.5054C31.6646 20.7664 31.8876 20.9453 32.1497 20.9586L32.1497 20.9586C32.2636 20.9594 32.3654 20.9532 32.4814 20.9224C32.5104 20.9147 32.5491 20.9045 32.5755 20.8871C32.6722 20.8615 32.7266 20.754 32.7036 20.667C32.6755 20.5606 32.5681 20.5063 32.4618 20.5345C32.4618 20.5345 32.4521 20.5371 32.4521 20.5371C32.4231 20.5448 32.4038 20.5499 32.3845 20.555C32.3071 20.5755 32.2369 20.5837 32.1738 20.5798L32.1738 20.5798C32.101 20.5784 32.0303 20.5454 31.9905 20.4732C31.9758 20.4564 31.9707 20.437 31.963 20.408C31.9503 20.3597 31.9568 20.3062 31.9756 20.2599C32.1265 19.9302 32.251 19.6179 32.3541 19.3423C32.5298 18.8716 32.7035 18.4325 32.878 18.4276C33.0841 18.4248 33.2874 18.764 33.4188 18.9878C34.0185 19.9669 34.2359 21.5748 33.3061 22.7936C32.3285 24.0665 30.5111 24.3514 29.404 23.8792C29.1943 23.79 28.9479 23.6794 28.9045 23.515C28.8631 23.3191 29.1393 23.1114 29.6245 22.7553C30.0955 22.4236 30.6768 22.0006 31.2187 21.3501C31.2594 21.3083 31.2731 21.2426 31.2578 21.1846C31.2297 21.0782 31.132 21.0213 31.0257 21.0495C30.987 21.0598 30.9509 21.0797 30.9295 21.1164C30.4186 21.7276 29.854 22.1358 29.3999 22.4527C29.1405 22.6456 28.9147 22.8089 28.7616 22.9736C28.6777 23.0475 28.4601 23.281 28.5346 23.6027C28.6168 23.9533 28.9777 24.106 29.246 24.2211C29.8751 24.4889 30.6858 24.5431 31.4642 24.3575C31.5151 24.3544 31.5537 24.3442 31.6021 24.3314L31.6021 24.3314Z"></path><path id="路径 5" fill-rule="evenodd" style="fill:#000000" opacity="1" d="M31.4793,23.0305c-0.1063,0.0281 -0.204,-0.0287 -0.2321,-0.1351c-0.0102,-0.0386 -0.0082,-0.0702 0.0009,-0.114c0.0305,-0.0805 0.1026,-0.3169 -0.005,-0.5677c-0.1203,-0.2991 -0.3911,-0.4239 -0.4715,-0.4544c-0.056,-0.0162 -0.1003,-0.0665 -0.1156,-0.1245c-0.0255,-0.0967 0.0385,-0.2068 0.1352,-0.2324c0.0387,-0.0102 0.0799,-0.0108 0.1165,0.0105c0.1146,0.0421 0.5121,0.2161 0.69,0.6552c0.1504,0.3739 0.0555,0.7198 0.0159,0.844c-0.0259,0.0586 -0.0763,0.103 -0.1343,0.1184zM32.0402,21.7853v0c-0.1063,0.0282 -0.2066,-0.0384 -0.2321,-0.1351c-0.0051,-0.0193 -0.0077,-0.029 -0.0102,-0.0386c0.0045,-0.0219 0.002,-0.0316 -0.0031,-0.0509c-0.0077,-0.029 -0.025,-0.0555 -0.0423,-0.0819c-0.0392,-0.031 -0.0759,-0.0524 -0.1293,-0.0589c-0.0341,-0.0116 -0.0881,-0.0594 -0.1059,-0.1271c-0.0281,-0.1064 0.0288,-0.2042 0.1351,-0.2324c0.029,-0.0077 0.0606,-0.0057 0.0921,-0.0037c0.1996,0.0506 0.364,0.2036 0.4176,0.4066c0.0128,0.0484 0.023,0.0871 0.0138,0.1309c0.0108,0.0799 -0.0487,0.168 -0.1357,0.1911z"></path></g></g><defs><rect id="path_0" x="0" y="0" width="40.000000000000085" height="40.000000000000085" /><linearGradient id="linear_0" x1="0%" y1="50%" x2="100%" y2="50%" gradientUnits="objectBoundingBox"><stop offset="0" stop-color="#F6D365" stop-opacity="1" /><stop offset="1" stop-color="#FDA085" stop-opacity="1" /></linearGradient></defs></svg>